<svg xmlns="http://www.w3.org/2000/svg" width="20" height="20" viewBox="0 0 24 24" fill="none">
  <path d="M5 10V16H16V10H5ZM10.83 14.908L9.62 13L7 13.428L10.223 11.104L11.398 13L14 12.57L10.83 14.908ZM19 10C19 8.346 17.654 7 16 7H5C3.346 7 2 8.346 2 10V16C2 17.654 3.346 19 5 19H16C17.654 19 19 17.654 19 16C19.5304 16 20.0391 15.7893 20.4142 15.4142C20.7893 15.0391 21 14.5304 21 14V12C21 11.4696 20.7893 10.9609 20.4142 10.5858C20.0391 10.2107 19.5304 10 19 10ZM17 16C17 16.552 16.551 17 16 17H5C4.449 17 4 16.552 4 16V10C4 9.448 4.449 9 5 9H16C16.551 9 17 9.448 17 10V16Z" fill="white"/>
</svg>
