<svg xmlns="http://www.w3.org/2000/svg" width="20" height="20" viewBox="0 0 24 24" fill="none">
                    <path d="M17.7838 10.708C18.3897 11.3212 18.8971 12.0245 19.2878 12.793C19.3993 13.028 19.4149 13.2971 19.3312 13.5434C19.2475 13.7897 19.0711 13.9936 18.8395 14.112C18.608 14.2304 18.3394 14.2539 18.0907 14.1776C17.8421 14.1012 17.633 13.931 17.5078 13.703C17.2119 13.121 16.828 12.5881 16.3698 12.123C15.6853 11.4382 14.8482 10.9253 13.9272 10.6265C13.0062 10.3276 12.0275 10.2513 11.0713 10.4037C10.1151 10.5561 9.20862 10.9329 8.42616 11.5033C7.64371 12.0736 7.00754 12.8213 6.56981 13.685C6.44665 13.9156 6.2381 14.0887 5.98883 14.1674C5.73955 14.2462 5.46936 14.2241 5.23613 14.1061C5.0029 13.988 4.82517 13.7833 4.741 13.5358C4.65683 13.2883 4.67291 13.0177 4.78581 12.782C5.36621 11.6363 6.20983 10.6445 7.24753 9.88787C8.28522 9.1312 9.48745 8.63119 10.7557 8.42883C12.0239 8.22647 13.322 8.32751 14.5437 8.72367C15.7653 9.11984 16.8757 9.79985 17.7838 10.708ZM15.7348 13.7C16.1948 14.16 16.5728 14.724 16.8368 15.324C16.9433 15.5669 16.9489 15.8422 16.8524 16.0893C16.7559 16.3364 16.5652 16.535 16.3223 16.6415C16.0794 16.748 15.8041 16.7536 15.557 16.6571C15.3099 16.5606 15.1113 16.3699 15.0048 16.127C14.8407 15.7503 14.6088 15.407 14.3208 15.114C13.7145 14.5077 12.8922 14.1671 12.0348 14.1671C11.1774 14.1671 10.3551 14.5077 9.74881 15.114C9.46457 15.4026 9.23667 15.7417 9.07681 16.114C9.02519 16.2358 8.94991 16.3462 8.85532 16.4387C8.76073 16.5313 8.64871 16.6041 8.52576 16.6531C8.40281 16.702 8.27137 16.726 8.13906 16.7238C8.00675 16.7215 7.8762 16.6931 7.75498 16.64C7.63376 16.5869 7.52428 16.5103 7.43288 16.4146C7.34148 16.3189 7.26998 16.2061 7.22253 16.0825C7.17507 15.959 7.15261 15.8273 7.15643 15.695C7.16026 15.5627 7.19029 15.4325 7.24481 15.312C7.50451 14.7114 7.8742 14.1647 8.33481 13.7C9.31616 12.7188 10.6471 12.1676 12.0348 12.1676C13.4225 12.1676 14.7535 12.7188 15.7348 13.7ZM20.4188 8.29897C20.9268 8.80697 21.4058 9.38597 21.8228 9.98997C21.9713 10.2083 22.0274 10.4765 21.9789 10.736C21.9304 10.9956 21.7812 11.2254 21.5639 11.3753C21.3466 11.5253 21.0788 11.5833 20.819 11.5366C20.5591 11.4898 20.3283 11.3422 20.1768 11.126C19.8268 10.62 19.4258 10.133 19.0048 9.71297C15.1328 5.84097 8.85481 5.84097 4.98181 9.71297C4.58281 10.112 4.18481 10.599 3.82181 11.123C3.67063 11.341 3.43905 11.49 3.178 11.5373C2.91695 11.5845 2.64782 11.5261 2.42981 11.375C2.2118 11.2238 2.06277 10.9922 2.01552 10.7312C1.96826 10.4701 2.02663 10.201 2.17781 9.98297C2.60581 9.36497 3.07881 8.78797 3.56781 8.29897C8.22081 3.64497 15.7658 3.64497 20.4188 8.29897ZM13.0618 16.441C13.2012 16.5804 13.3118 16.7459 13.3872 16.928C13.4627 17.1101 13.5015 17.3053 13.5015 17.5025C13.5015 17.6996 13.4627 17.8948 13.3872 18.077C13.3118 18.2591 13.2012 18.4246 13.0618 18.564C12.9224 18.7034 12.7569 18.8139 12.5748 18.8894C12.3927 18.9648 12.1974 19.0037 12.0003 19.0037C11.8032 19.0037 11.608 18.9648 11.4258 18.8894C11.2437 18.8139 11.0782 18.7034 10.9388 18.564C10.6573 18.2824 10.4991 17.9006 10.4991 17.5025C10.4991 17.1043 10.6573 16.7225 10.9388 16.441C11.2203 16.1594 11.6022 16.0013 12.0003 16.0013C12.3984 16.0013 12.7803 16.1594 13.0618 16.441Z" fill="white"/>
                  </svg>