<?xml version="1.0" standalone="no"?>
<!DOCTYPE svg PUBLIC "-//W3C//DTD SVG 20010904//EN"
 "http://www.w3.org/TR/2001/REC-SVG-20010904/DTD/svg10.dtd">
<svg version="1.0" xmlns="http://www.w3.org/2000/svg"
 width="20" height="20" viewBox="0 0 631.000000 620.000000"
 preserveAspectRatio="xMidYMid meet">

<g transform="translate(0.000000,620.000000) scale(0.100000,-0.100000)"
fill="white" stroke="none">
<path d="M2930 5729 c-1028 -70 -1927 -755 -2273 -1734 -195 -552 -195 -1194
0 -1740 133 -372 329 -674 625 -960 204 -198 410 -346 663 -475 233 -119 457
-199 710 -252 147 -32 156 -32 415 -33 289 0 299 2 369 61 109 91 87 259 -41
325 -32 16 -60 19 -192 19 -149 0 -158 1 -213 27 -172 82 -348 357 -478 748
-34 105 -105 374 -105 402 0 10 70 13 353 13 360 0 412 5 456 37 104 78 120
206 38 300 -60 68 -58 67 -507 73 l-405 5 -13 105 c-19 150 -21 754 -3 938
l14 142 767 0 767 0 11 -132 c6 -73 14 -176 18 -228 7 -108 22 -149 72 -190
81 -66 193 -60 268 16 61 61 67 90 54 296 -6 95 -13 188 -16 206 l-6 32 467
-2 467 -3 19 -59 c46 -151 80 -447 76 -671 -2 -138 8 -166 80 -221 90 -69 218
-44 282 54 35 53 44 149 38 397 -4 176 -10 249 -31 365 -96 532 -324 979 -696
1364 -452 466 -1048 738 -1705 776 -93 5 -181 9 -195 8 -14 0 -81 -5 -150 -9z
m298 -430 c172 -86 343 -352 470 -734 38 -114 112 -386 112 -412 0 -10 -147
-13 -700 -13 -553 0 -700 3 -700 13 0 27 71 299 106 402 100 302 219 523 353
655 127 124 235 151 359 89z m-933 -224 c-75 -150 -129 -284 -184 -460 -39
-126 -93 -345 -107 -432 l-7 -43 -419 0 c-396 0 -420 1 -413 18 3 9 29 55 57
102 176 293 438 561 721 737 107 66 283 156 359 183 29 10 54 19 54 19 1 1
-27 -55 -61 -124z m1750 31 c401 -198 712 -482 944 -865 28 -46 51 -88 51 -93
0 -4 -184 -8 -409 -8 l-410 0 -11 58 c-66 330 -167 639 -286 875 -31 63 -49
107 -41 107 6 0 80 -33 162 -74z m-2110 -1408 c-31 -185 -31 -941 0 -1125 l6
-33 -469 0 -469 0 -21 78 c-48 178 -66 326 -66 537 0 205 10 289 56 488 l20
87 474 0 475 0 -6 -32z m69 -1610 c14 -88 68 -307 107 -433 53 -169 97 -282
170 -434 33 -68 58 -125 57 -127 -7 -7 -196 83 -306 146 -330 187 -639 498
-828 832 l-33 58 413 0 413 0 7 -42z"/>
<path d="M4325 2923 c-59 -9 -216 -55 -273 -79 -366 -158 -613 -448 -710 -833
-24 -95 -26 -124 -26 -281 0 -159 2 -185 27 -278 95 -355 306 -623 622 -785
177 -91 336 -129 545 -129 113 0 167 5 245 22 239 53 442 164 610 335 147 149
252 335 308 545 29 107 31 127 31 290 0 193 -16 288 -76 438 -120 306 -356
549 -652 672 -159 66 -242 82 -441 85 -99 2 -193 1 -210 -2z m436 -431 c256
-89 445 -287 520 -547 20 -67 23 -102 23 -215 -1 -147 -21 -236 -79 -350 l-27
-53 -544 544 c-299 299 -544 547 -544 550 0 16 181 88 260 103 14 2 88 3 165
1 125 -2 149 -6 226 -33z m-392 -906 l544 -544 -68 -31 c-110 -50 -208 -71
-333 -71 -371 0 -673 233 -778 600 -28 100 -26 301 4 400 26 83 71 190 81 190
3 0 251 -245 550 -544z"/>
</g>
</svg>
