<svg xmlns="http://www.w3.org/2000/svg" width="25" height="25" viewBox="0 0 128 128" fill="none">
  <path d="M67.328 72.331C67.328 69.5696 69.5666 67.331 72.328 67.331H122.997C125.758 67.331 127.997 69.5696 127.997 72.331V123C127.997 125.761 125.758 128 122.997 128H72.328C69.5666 128 67.328 125.761 67.328 123V72.331ZM0.00299072 72.331C0.00299072 69.5696 2.24157 67.331 5.00299 67.331H55.672C58.4334 67.331 60.672 69.5696 60.672 72.331V123C60.672 125.761 58.4334 128 55.672 128H5.003C2.24157 128 0.00299072 125.761 0.00299072 123V72.331ZM67.328 5.00001C67.328 2.23858 69.5666 0 72.328 0H122.997C125.758 0 127.997 2.23858 127.997 5V55.669C127.997 58.4304 125.758 60.669 122.997 60.669H72.328C69.5666 60.669 67.328 58.4304 67.328 55.669V5.00001ZM0.00299072 5.00001C0.00299072 2.23858 2.24157 0 5.00299 0H55.672C58.4334 0 60.672 2.23858 60.672 5V55.669C60.672 58.4304 58.4334 60.669 55.672 60.669H5.003C2.24157 60.669 0.00299072 58.4304 0.00299072 55.669V5.00001Z" fill="url(#paint0_linear_527_1087)"/>
  <defs>
    <linearGradient id="paint0_linear_527_1087" x1="128" y1="128" x2="-7.05031e-08" y2="7.05031e-08" gradientUnits="userSpaceOnUse">
      <stop stop-color="#0A69B1"/>
      <stop offset="1" stop-color="#62E3FF"/>
    </linearGradient>
  </defs>
</svg>