<?xml version="1.0" encoding="iso-8859-1"?>
<!-- Generator: Adobe Illustrator 19.0.0, SVG Export Plug-In . SVG Version: 6.00 Build 0)  -->
<!-- License: CC0. Made by SVG Repo: https://www.svgrepo.com/svg/15625/skype -->
<svg version="1.1" id="Layer_1" xmlns="http://www.w3.org/2000/svg" xmlns:xlink="http://www.w3.org/1999/xlink" x="0px" y="0px"
	 viewBox="0 0 470 470" style="enable-background:new 0 0 470 470;" xml:space="preserve">
<g>
	<g id="XMLID_30_">
		<g>
			<path style="fill:#15ACE5;" d="M422.133,308.432C444.855,323.137,460,348.593,460,377.683C460,423.118,423.119,460,377.684,460
				c-30.291,0-56.637-16.356-70.902-40.719c-22.391,8.446-46.539,13.28-71.781,13.28c-112.178,0-203.049-90.881-203.049-203.049
				c0-24.695,4.609-48.292,12.734-70.136C23.719,144.451,10,119.976,10,92.317C10,46.877,46.871,10,92.316,10
				c26.453,0,49.938,12.514,64.975,31.94c23.924-9.989,50.162-15.477,77.709-15.477c112.168,0,203.049,90.876,203.049,203.049
				C438.049,257.498,432.348,284.176,422.133,308.432z"/>
		</g>
		
	</g>
	<g>
		<path style="fill:#FFFFFF;" d="M238.912,355.731c-66.615,0-99.938-24.984-110.195-56.378
			c-10.246-31.372,12.176-40.354,19.229-41.008c7.053-0.633,21.994,1.083,26.26,14.095c4.438,13.548,19.219,40.376,51.256,43.57
			c32.025,3.194,53.184-11.533,59.584-26.893c6.387-15.381-5.146-36.528-54.461-43.57c-49.326-7.053-100.58-28.832-100.58-78.158
			s56.377-69.187,110.184-69.187c53.816,0,81.105,30.387,87.131,42.284c7.471,14.732,4.918,39.277-12.82,43.554
			c-18.564,4.486-28.178-5.767-41.641-30.74c-13.912-25.847-63.41-19.212-80.076-4.486c-16.646,14.738-12.166,35.874,57.021,49.321
			c69.197,13.462,94.803,38.436,94.803,77.521C344.605,314.723,305.527,355.731,238.912,355.731z"/>
	</g>
</g>
</svg>
